<svg xmlns="http://www.w3.org/2000/svg" width="126.066" height="126.065" viewBox="0 0 126.066 126.065"><defs><style>.a{fill:#fff;}</style></defs><path class="a" d="M63.033.563A63.033,63.033,0,1,0,126.066,63.6,63.022,63.022,0,0,0,63.033.563Zm0,24.4A22.366,22.366,0,1,1,40.666,47.329,22.367,22.367,0,0,1,63.033,24.962Zm0,87.432A48.7,48.7,0,0,1,25.8,95.061a28.338,28.338,0,0,1,25.035-15.2,6.219,6.219,0,0,1,1.8.28,33.652,33.652,0,0,0,10.4,1.754,33.524,33.524,0,0,0,10.4-1.754,6.219,6.219,0,0,1,1.8-.28,28.338,28.338,0,0,1,25.035,15.2A48.7,48.7,0,0,1,63.033,112.395Z" transform="translate(0 -0.563)"/></svg>